<?xml version="1.0" encoding="UTF-8"?>
<!DOCTYPE svg PUBLIC "-//W3C//DTD SVG 1.1//EN" "http://www.w3.org/Graphics/SVG/1.1/DTD/svg11.dtd">
<svg xmlns="http://www.w3.org/2000/svg" version="1.1" width="500px" height="500px" style="shape-rendering:geometricPrecision; text-rendering:geometricPrecision; image-rendering:optimizeQuality; fill-rule:evenodd; clip-rule:evenodd" xmlns:xlink="http://www.w3.org/1999/xlink">
<g><path style="opacity:1" fill="#fefefe" d="M -0.5,-0.5 C 166.167,-0.5 332.833,-0.5 499.5,-0.5C 499.5,166.167 499.5,332.833 499.5,499.5C 332.833,499.5 166.167,499.5 -0.5,499.5C -0.5,332.833 -0.5,166.167 -0.5,-0.5 Z"/></g>
<g><path style="opacity:1" fill="#060606" d="M 228.5,59.5 C 312.27,54.9661 376.77,87.6327 422,157.5C 457.62,222.625 458.62,288.292 425,354.5C 380.768,428.541 315.268,463.041 228.5,458C 164.18,449.107 114.346,417.607 79,363.5C 39.4179,292.879 39.7512,222.546 80,152.5C 115.474,99.3345 164.974,68.3345 228.5,59.5 Z"/></g>
<g><path style="opacity:1" fill="#fdfdfd" d="M 227.5,71.5 C 291.094,66.5679 344.927,86.9012 389,132.5C 430.67,180.838 445.337,236.505 433,299.5C 413.511,373.991 366.678,421.491 292.5,442C 218.639,456.268 156.473,435.768 106,380.5C 64.752,328.482 52.4187,270.148 69,205.5C 95.465,129.527 148.298,84.8608 227.5,71.5 Z"/></g>
<g><path style="opacity:1" fill="#090909" d="M 170.5,124.5 C 204.835,124.333 239.168,124.5 273.5,125C 287.279,138.779 301.113,152.613 315,166.5C 315.667,169.833 315.667,173.167 315,176.5C 313.667,177.833 312.333,177.833 311,176.5C 310.506,174.866 310.34,173.199 310.5,171.5C 297.163,171.667 283.829,171.5 270.5,171C 269.51,157.579 269.177,144.079 269.5,130.5C 237.833,130.5 206.167,130.5 174.5,130.5C 174.5,193.167 174.5,255.833 174.5,318.5C 219.833,318.5 265.167,318.5 310.5,318.5C 310.333,293.831 310.5,269.164 311,244.5C 312.784,241.997 314.451,241.997 316,244.5C 316.833,270.84 316.667,297.173 315.5,323.5C 266.97,324.831 218.47,324.831 170,323.5C 169.171,257.096 169.337,190.763 170.5,124.5 Z"/></g>
<g><path style="opacity:1" fill="#050505" d="M 255.5,262.5 C 256.043,262.44 256.376,262.107 256.5,261.5C 245.52,260.501 234.52,260.168 223.5,260.5C 222.199,259.116 222.199,257.616 223.5,256C 236.167,255.667 248.833,255.333 261.5,255C 265.621,249.924 269.621,244.757 273.5,239.5C 256.843,238.667 240.177,238.167 223.5,238C 222.62,236.644 222.286,235.144 222.5,233.5C 241.17,233.667 259.836,233.5 278.5,233C 280.833,230 283.167,227 285.5,224C 264.503,223.5 243.503,223.333 222.5,223.5C 222.286,221.856 222.62,220.356 223.5,219C 245.833,218.667 268.167,218.333 290.5,218C 301.88,203.409 313.38,188.909 325,174.5C 326,171.833 327,169.167 328,166.5C 330.575,163.681 332.908,160.681 335,157.5C 339.729,155.109 343.563,151.609 346.5,147C 347.833,146.333 349.167,146.333 350.5,147C 354.714,150.882 359.214,154.382 364,157.5C 364.667,159.167 364.667,160.833 364,162.5C 362.167,165 360.333,167.5 358.5,170C 361.799,172.793 364.799,175.793 367.5,179C 359.279,191.226 350.279,202.893 340.5,214C 337.35,214.238 336.184,212.738 337,209.5C 345.196,199.604 353.03,189.437 360.5,179C 359.328,176.945 357.661,176.278 355.5,177C 353.167,180 350.833,183 348.5,186C 346.324,186.163 344.491,186.996 343,188.5C 320.667,217.5 298.333,246.5 276,275.5C 273.167,279.667 269.667,283.167 265.5,286C 259.236,289.27 253.236,292.936 247.5,297C 246.5,297.667 245.5,297.667 244.5,297C 243.811,289.896 245.145,283.063 248.5,276.5C 240.187,275.668 231.853,275.168 223.5,275C 222.62,273.644 222.286,272.144 222.5,270.5C 231.857,270.832 241.19,270.498 250.5,269.5C 251.931,266.961 253.597,264.628 255.5,262.5 Z"/></g>
<g><path style="opacity:1" fill="#f4f4f4" d="M 337.5,163.5 C 342.1,166.252 346.6,169.252 351,172.5C 351.667,173.167 351.667,173.833 351,174.5C 348.957,176.208 347.29,178.208 346,180.5C 341.41,177.121 336.91,173.621 332.5,170C 333.999,167.672 335.666,165.505 337.5,163.5 Z"/></g>
<g><path style="opacity:1" fill="#0c0c0c" d="M 208.5,176.5 C 212.071,176.408 213.238,178.074 212,181.5C 208.287,186.424 204.454,191.258 200.5,196C 199.167,196.667 197.833,196.667 196.5,196C 192.971,193.669 190.971,190.503 190.5,186.5C 193.652,185.959 196.152,186.959 198,189.5C 201.713,185.292 205.213,180.959 208.5,176.5 Z"/></g>
<g><path style="opacity:1" fill="#000000" d="M 223.5,181.5 C 247.5,181.5 271.5,181.5 295.5,181.5C 295.5,183.167 295.5,184.833 295.5,186.5C 271.498,186.667 247.498,186.5 223.5,186C 222.272,184.51 222.272,183.01 223.5,181.5 Z"/></g>
<g><path style="opacity:1" fill="#010101" d="M 222.5,196.5 C 240.5,196.5 258.5,196.5 276.5,196.5C 276.714,198.144 276.38,199.644 275.5,201C 258.167,201.667 240.833,201.667 223.5,201C 222.62,199.644 222.286,198.144 222.5,196.5 Z"/></g>
<g><path style="opacity:1" fill="#0c0c0c" d="M 208.5,214.5 C 212.071,214.408 213.238,216.074 212,219.5C 207.806,224.06 203.972,228.894 200.5,234C 199.167,234.667 197.833,234.667 196.5,234C 192.971,231.669 190.971,228.503 190.5,224.5C 193.652,223.959 196.152,224.959 198,227.5C 201.713,223.292 205.213,218.959 208.5,214.5 Z"/></g>
<g><path style="opacity:1" fill="#0f0f0f" d="M 207.5,251.5 C 209.167,251.5 210.833,251.5 212.5,251.5C 209.844,259.446 205.177,266.112 198.5,271.5C 195.567,270.07 193.067,268.07 191,265.5C 190.014,263.075 190.681,261.409 193,260.5C 194.737,261.62 196.571,262.62 198.5,263.5C 202.005,259.798 205.005,255.798 207.5,251.5 Z"/></g>
<g><path style="opacity:1" fill="#424242" d="M 223.5,260.5 C 234.52,260.168 245.52,260.501 256.5,261.5C 256.376,262.107 256.043,262.44 255.5,262.5C 244.833,261.833 234.167,261.167 223.5,260.5 Z"/></g>
<g><path style="opacity:1" fill="#ebebeb" d="M 254.5,275.5 C 257.774,276.14 260.441,277.807 262.5,280.5C 259.554,283.313 256.221,285.646 252.5,287.5C 252.067,283.418 252.733,279.418 254.5,275.5 Z"/></g>
<g><path style="opacity:1" fill="#535353" d="M 212.5,329.5 C 207.833,329.5 203.167,329.5 198.5,329.5C 198.5,330.5 198.5,331.5 198.5,332.5C 197.566,331.432 197.232,330.099 197.5,328.5C 202.695,328.179 207.695,328.513 212.5,329.5 Z"/></g>
<g><path style="opacity:1" fill="#141414" d="M 212.5,329.5 C 212.5,330.5 212.5,331.5 212.5,332.5C 210.833,332.5 209.167,332.5 207.5,332.5C 207.5,337.5 207.5,342.5 207.5,347.5C 205.833,347.5 204.167,347.5 202.5,347.5C 202.5,342.5 202.5,337.5 202.5,332.5C 201.167,332.5 199.833,332.5 198.5,332.5C 198.5,331.5 198.5,330.5 198.5,329.5C 203.167,329.5 207.833,329.5 212.5,329.5 Z"/></g>
<g><path style="opacity:1" fill="#111111" d="M 221.5,328.5 C 233.431,328.587 237.098,334.087 232.5,345C 225.218,349.448 219.718,347.948 216,340.5C 215.333,338.833 215.333,337.167 216,335.5C 217.666,333.004 219.5,330.671 221.5,328.5 Z"/></g>
<g><path style="opacity:1" fill="#101010" d="M 239.5,328.5 C 244.412,328.063 249.078,328.896 253.5,331C 257.647,336.275 257.314,341.275 252.5,346C 248.3,347.367 243.967,347.867 239.5,347.5C 239.5,341.167 239.5,334.833 239.5,328.5 Z"/></g>
<g><path style="opacity:1" fill="#111111" d="M 265.5,328.5 C 277.431,328.587 281.098,334.087 276.5,345C 269.218,349.448 263.718,347.948 260,340.5C 259.333,338.833 259.333,337.167 260,335.5C 261.666,333.004 263.5,330.671 265.5,328.5 Z"/></g>
<g><path style="opacity:1" fill="#f2f2f2" d="M 223.5,332.5 C 228.813,332.644 230.979,335.31 230,340.5C 228.18,343.203 225.68,344.036 222.5,343C 219.64,339.151 219.973,335.651 223.5,332.5 Z"/></g>
<g><path style="opacity:1" fill="#e8e8e8" d="M 243.5,332.5 C 251.168,332.507 253.168,335.84 249.5,342.5C 247.591,343.348 245.591,343.682 243.5,343.5C 243.5,339.833 243.5,336.167 243.5,332.5 Z"/></g>
<g><path style="opacity:1" fill="#f2f2f2" d="M 267.5,332.5 C 272.813,332.644 274.979,335.31 274,340.5C 272.18,343.203 269.68,344.036 266.5,343C 263.64,339.151 263.973,335.651 267.5,332.5 Z"/></g>
</svg>
